<svg xmlns="http://www.w3.org/2000/svg" width="102" height="111.634" viewBox="0 0 102 111.634">
  <path id="Icon_awesome-linkedin-in" data-name="Icon awesome-linkedin-in" d="M22.384,109.634H1.652v-73.2H22.384ZM12.007,26.453C5.377,26.453,0,20.433,0,13.164S5.376,0,12.007,0,24.013,5.894,24.013,13.164,18.634,26.453,12.007,26.453Zm87.971,83.181H79.29V74c0-8.492-.156-19.382-10.779-19.382-10.779,0-12.431,9.226-12.431,18.77v36.243H35.371v-73.2H55.254v9.985h.29A21.521,21.521,0,0,1,75.161,34.6C96.143,34.6,100,49.75,100,69.426v40.208Z" transform="translate(1 1)" fill="none" stroke="#df5757" stroke-width="2"/>
</svg>
