<svg xmlns="http://www.w3.org/2000/svg" width="102" height="112.277" viewBox="0 0 102 112.277">
  <path id="Icon_simple-email" data-name="Icon simple-email" d="M101.6,50.9a56.873,56.873,0,0,1-1.833,12.335,35.7,35.7,0,0,1-4.8,10.833,25.308,25.308,0,0,1-8.131,7.7A22.948,22.948,0,0,1,74.969,84.69a17.212,17.212,0,0,1-8.586-2.1,14.7,14.7,0,0,1-5.8-5.947,18.391,18.391,0,0,1-15.56,7.814,15.822,15.822,0,0,1-13.582-7.3,23.912,23.912,0,0,1-3.377-8.462A36.5,36.5,0,0,1,27.62,57.65a51.281,51.281,0,0,1,3.363-13.52A36.749,36.749,0,0,1,37.2,33.773a26.3,26.3,0,0,1,8.545-6.6,23.843,23.843,0,0,1,10.392-2.308,32.312,32.312,0,0,1,6.216.531,25.442,25.442,0,0,1,4.824,1.447,26.085,26.085,0,0,1,4,2.109c1.22.786,2.446,1.6,3.666,2.426L71.819,66.105a11.544,11.544,0,0,0,.09,4.066,5.688,5.688,0,0,0,1.24,2.508,4.465,4.465,0,0,0,2.012,1.309,7.47,7.47,0,0,0,7.07-1.392,15.069,15.069,0,0,0,3.79-4.824,31.067,31.067,0,0,0,2.55-7.249A49.74,49.74,0,0,0,89.688,51.5a57.691,57.691,0,0,0-1.42-16.869,33.532,33.532,0,0,0-6.243-13.052,28.991,28.991,0,0,0-11.191-8.407,40.618,40.618,0,0,0-16.3-2.984A36,36,0,0,0,38.4,13.7a37,37,0,0,0-12.252,9.744A46.763,46.763,0,0,0,18.132,38.1a66.052,66.052,0,0,0-3.377,18.261,60.724,60.724,0,0,0,1.723,18.633A33.654,33.654,0,0,0,23.286,88.35a28.412,28.412,0,0,0,11.536,8.021,44.248,44.248,0,0,0,15.918,2.66,54.522,54.522,0,0,0,10.447-1.123c1.723-.345,3.356-.758,4.913-1.213a36.981,36.981,0,0,0,4.231-1.516l2.184,9.827a24.249,24.249,0,0,1-4.734,2.343,45.573,45.573,0,0,1-5.6,1.619A54.6,54.6,0,0,1,50.5,110.277a61.289,61.289,0,0,1-21.307-3.432A39.215,39.215,0,0,1,13.659,96.633,42.89,42.89,0,0,1,4.336,79.77a71.927,71.927,0,0,1-2.6-23.409A71.39,71.39,0,0,1,6.21,33.9,55.6,55.6,0,0,1,17,16.049,49.174,49.174,0,0,1,33.464,4.272,51.542,51.542,0,0,1,54.785,0,53.811,53.811,0,0,1,75.444,3.7,40.182,40.182,0,0,1,90.356,14.106,42.7,42.7,0,0,1,99.2,30.183,61.472,61.472,0,0,1,101.6,50.9ZM42.422,57.65q-.651,7.68,1.213,11.625a6.233,6.233,0,0,0,6,3.928,6.622,6.622,0,0,0,2.054-.379,7.324,7.324,0,0,0,2.364-1.42,12.614,12.614,0,0,0,2.4-2.894,22.211,22.211,0,0,0,2.205-4.893l2.357-26.985a14.08,14.08,0,0,0-3.666-.482,12.675,12.675,0,0,0-6.1,1.4,12.073,12.073,0,0,0-4.321,4.107,24.118,24.118,0,0,0-2.867,6.753,57.287,57.287,0,0,0-1.626,9.234Z" transform="translate(-0.67 1)" fill="none" stroke="#df5757" stroke-linejoin="round" stroke-miterlimit="1.414" stroke-width="2"/>
</svg>
